<?xml version="1.0" standalone="no"?>
<!DOCTYPE svg PUBLIC "-//W3C//DTD SVG 20010904//EN"
 "http://www.w3.org/TR/2001/REC-SVG-20010904/DTD/svg10.dtd">
<svg version="1.0" xmlns="http://www.w3.org/2000/svg"
 width="512.000000pt" height="511.000000pt" viewBox="0 0 512.000000 511.000000"
 preserveAspectRatio="xMidYMid meet">

<g transform="translate(0.000000,511.000000) scale(0.100000,-0.100000)"
fill="#000000" stroke="none">
<path d="M3527 4889 c-281 -19 -546 -115 -850 -308 -54 -34 -104 -64 -111 -67
-8 -3 -76 34 -152 81 -177 110 -289 164 -440 214 -183 60 -278 75 -494 75
-208 1 -305 -13 -461 -65 -209 -70 -374 -174 -539 -339 -221 -221 -365 -473
-435 -762 -26 -105 -53 -372 -42 -402 6 -15 54 -16 544 -16 l538 0 254 520
c140 286 258 517 262 513 4 -4 168 -455 365 -1000 197 -546 360 -993 363 -993
3 1 82 232 176 515 l169 515 1225 0 1224 0 -7 102 c-24 376 -201 748 -487
1028 -292 285 -670 418 -1102 389z"/>
<path d="M1416 3284 l-139 -284 -614 0 c-337 0 -613 -2 -613 -4 0 -27 75 -219
125 -321 159 -328 365 -573 925 -1103 472 -447 466 -442 810 -757 168 -154
383 -354 478 -444 l173 -164 32 30 c18 16 111 103 207 194 96 91 312 291 480
445 626 574 1099 1027 1260 1209 295 333 466 635 544 958 l6 27 -1098 0 -1099
0 -165 -502 c-91 -277 -214 -653 -274 -836 -59 -183 -111 -329 -115 -325 -3 5
-181 492 -394 1083 -213 591 -388 1076 -389 1077 0 1 -64 -127 -140 -283z"/>
</g>
</svg>
